<?xml version="1.0" encoding="UTF-8"?>
<svg xmlns="http://www.w3.org/2000/svg" version="1.1" viewBox="0 0 512 512">
  <!-- Generator: Adobe Illustrator 29.0.1, SVG Export Plug-In . SVG Version: 2.1.0 Build 192)  -->
  <defs>
    <style>
      .st0 {
        fill: #fff;
      }

      .st0, .st1 {
        fill-rule: evenodd;
      }
    </style>
  </defs>
  <g id="Layer_1" image-rendering="optimizeQuality" shape-rendering="geometricPrecision" text-rendering="geometricPrecision">
    <path class="st1" d="M256,0C397.3850098,0,512,114.6149979,512,256s-114.6149902,256-256,256S0,397.3850098,0,256,114.6149979,0,256,0ZM360.9320068,160.6210022c-19.8685608-9.0878906-40.8409424-15.5366516-62.3829956-19.1820068-2.9353943,5.2724304-5.5943298,10.6941071-7.9660034,16.2429962-11.4587097-1.7289886-23.0306091-2.5990753-34.6190033-2.6029968-11.5690002,0-23.1949921.8789978-34.621994,2.5800018-2.3339996-5.5090027-5.0440063-10.970993-7.9859924-16.2229919-21.5430298,3.6808014-42.5172119,10.1421051-62.3970032,19.2220001-39.4830017,58.4080048-50.1829987,115.3570099-44.8330002,171.496994,23.1191025,17.0769043,48.9944839,30.0643311,76.5020065,38.3980103,6.1690063-8.3269958,11.6950073-17.1919861,16.3860016-26.4169922-8.951355-3.3357239-17.5894928-7.4581604-25.8130035-12.3190002,2.1640015-1.5690002,4.2810059-3.1860046,6.3249969-4.756012,23.9120026,11.2309875,50.0390015,17.0880127,76.4730072,17.0880127,26.4360046,0,52.5620117-5.8569946,76.4750061-17.0889893,2.0690002,1.6879883,4.1860046,3.3049927,6.3250122,4.7550049-8.2398682,4.8699951-16.8934631,9.0033569-25.8600159,12.3519897,4.7082214,9.2453308,10.190094,18.0758362,16.3869934,26.3970032,27.5322876-8.3081055,53.4283142-21.2951965,76.553009-38.3919983l-.006012.0069885c6.2770081-65.1040039-10.7250061-121.5299988-44.9410095-171.5579987v-.0000153ZM205.7799988,297.6300049c-14.9080048,0-27.2259979-13.5299988-27.2259979-30.1749878,0-16.6450043,11.8889923-30.2929993,27.1779938-30.2929993,15.2899933,0,27.5110016,13.647995,27.25,30.2929993-.2619934,16.644989-12.0079956,30.1749878-27.2019958,30.1749878ZM306.2189941,297.6300049c-14.9330139,0-27.2019958-13.5299988-27.2019958-30.1749878,0-16.6450043,11.8890076-30.2929993,27.2019958-30.2929993s27.4400024,13.647995,27.178009,30.2929993c-.2609863,16.644989-11.9840088,30.1749878-27.178009,30.1749878Z"/>
    <g>
      <path class="st0" d="M360.9320197,160.621048v-.000061c-19.8685303-9.0878906-40.8409424-15.5366211-62.3829956-19.1820068-2.9353638,5.2724609-5.5942993,10.6941528-7.9660034,16.243042-11.4586792-1.7290039-23.0305786-2.5991211-34.6190186-2.6030273-11.5689697,0-23.1949463.8790283-34.6219482,2.5800171-2.3340454-5.5090332-5.0440063-10.9710083-7.9860229-16.2230225-21.5430298,3.6808472-42.5172119,10.1421509-62.3969727,19.2220459-39.4830322,58.407959-50.1830444,115.3569946-44.8330078,171.4969482,23.1190796,17.0769043,48.9944458,30.0643311,76.5020142,38.3980103,6.1690063-8.3269653,11.6950073-17.1919556,16.3859863-26.4169922-8.951355-3.3356934-17.5894775-7.4581299-25.8129883-12.3189697,2.1640015-1.5690308,4.2810059-3.1860352,6.3249512-4.7560425,23.9120483,11.2310181,50.0390015,17.0880127,76.4730225,17.0880127,26.4360352,0,52.5620117-5.8569946,76.4750366-17.0889893,2.0689697,1.6879883,4.1859741,3.3049927,6.3250122,4.7550049-8.2398682,4.8699951-16.8934937,9.0033569-25.8600464,12.3519897,4.708252,9.2453613,10.1901245,18.0758667,16.3870239,26.3970337,27.5300293-8.3074341,53.4239502-21.2932129,76.5472412-38.3878784,6.276123-65.1027832-10.725769-121.5278931-44.9412842-171.5551147ZM205.7800422,297.6300201c-14.90802,0-27.2260132-13.5300293-27.2260132-30.1749878,0-16.6450195,11.8889771-30.2930298,27.1779785-30.2930298,15.289978,0,27.5109863,13.6480103,27.25,30.2930298-.2619629,16.6449585-12.0079956,30.1749878-27.2019653,30.1749878ZM306.219007,297.6300201c-14.9329834,0-27.2019653-13.5300293-27.2019653-30.1749878,0-16.6450195,11.8889771-30.2930298,27.2019653-30.2930298s27.4400024,13.6480103,27.1780396,30.2930298c-.2609863,16.6449585-11.9840088,30.1749878-27.1780396,30.1749878Z"/>
      <polygon class="st0" points="405.8790412 332.1720123 405.8733039 332.1761627 405.8730598 332.1790314 405.8790412 332.1720123"/>
    </g>
  </g>
</svg>