<svg width="269" height="38" viewBox="0 0 269 38" fill="none" xmlns="http://www.w3.org/2000/svg"><path fill-rule="evenodd" clip-rule="evenodd" d="M26.1368 1.10778C26.043 1.06552 25.9531 1.00792 25.8548 0.983276C22.2237 0.0735893 18.6368 0.217564 15.1221 1.50703C13.7549 2.00857 12.4683 2.68015 11.2719 3.53172C10.2365 4.26878 9.28834 5.09329 8.45416 6.03537C5.64264 9.21055 4.30455 12.9064 4.5523 17.1438C4.71825 19.9817 5.66245 22.5481 7.46048 24.7506C9.55551 27.3169 12.2515 28.9125 15.6178 29.2337C17.835 29.4453 19.951 29.0757 21.8931 27.9442C22.7286 27.4574 23.4832 26.8622 24.1531 26.1632C24.3584 25.9488 24.5754 25.7386 24.8172 25.5687C24.9212 25.4955 25.1388 25.4708 25.2375 25.5315C25.3347 25.5913 25.4163 25.8069 25.3835 25.9196C25.275 26.2928 25.1633 26.682 24.96 27.0081C24.3554 27.978 23.5773 28.7945 22.6121 29.4304C18.914 31.8668 15.0148 31.9004 11.0311 30.2946C8.92708 29.4465 7.18259 28.071 5.71107 26.3366C3.1878 23.3626 2.04821 19.8977 1.97243 16.0727C1.92862 13.8605 2.41191 11.7147 3.22748 9.65603C3.89398 7.97368 4.77312 6.40258 5.95778 5.01777C6.48029 4.40701 7.04359 3.83047 7.58783 3.23785C7.69085 3.12569 7.7912 3.01118 7.89283 2.8977C7.87684 2.87852 7.86085 2.85928 7.84486 2.84004C7.70505 2.95317 7.55266 3.05413 7.42745 3.18134C6.28636 4.34062 5.22268 5.55704 4.36197 6.94667C2.86008 9.37135 1.9467 11.9827 1.70694 14.8187C1.50368 17.2223 1.74362 19.5822 2.54112 21.8667C3.22592 23.8285 4.21323 25.6379 5.60845 27.1943C8.93606 30.9064 13.0805 32.7565 18.1253 32.4062C20.7226 32.2259 23.0939 31.3529 25.1208 29.718C28.2266 27.2128 29.7823 23.9826 29.559 19.9718C29.5404 19.6376 29.5054 19.3011 29.5288 18.9691C29.5388 18.8264 29.6577 18.6031 29.7648 18.5786C29.8862 18.5509 30.101 18.6685 30.1864 18.7863C30.5694 19.3142 30.6887 19.9454 30.7792 20.5691C31.1403 23.0554 30.6408 25.3799 29.4034 27.5625C28.2218 29.6466 26.5939 31.3053 24.5219 32.5134C20.774 34.6988 16.7677 35.1198 12.5861 34.0935C9.9721 33.4519 7.66709 32.201 5.6329 30.4583C3.50925 28.6389 1.8993 26.4445 0.788055 23.8909C0.528769 23.2951 0.284374 22.6929 0 22.1005C0.11733 22.4817 0.213628 22.8707 0.355236 23.2428C1.76204 26.939 4.05986 29.9555 7.3753 32.1728C10.3021 34.1301 13.5409 35.1651 17.0754 35.1584C20.83 35.1513 24.2202 34.0187 27.1523 31.6628C30.0681 29.3199 31.8267 26.293 32.3663 22.6122C32.7784 19.8015 32.2553 17.1227 30.8166 14.671C29.5967 12.5921 27.8657 11.0233 25.5913 10.1007C25.065 9.88724 24.5236 9.71047 23.9895 9.5159C23.8447 9.46312 23.6797 9.43441 23.5628 9.34488C23.4459 9.2554 23.2902 9.08679 23.3104 8.98318C23.3355 8.85414 23.5064 8.69609 23.6445 8.65796C23.8905 8.59008 24.1602 8.57612 24.4182 8.58623C26.0184 8.64882 27.4476 9.22037 28.7719 10.0745C31.6422 11.9258 33.3951 14.5577 34.1816 17.8293C34.9747 21.1282 34.6029 24.3353 33.2384 27.428C32.1088 29.9882 30.3703 32.0952 28.1599 33.8075C26.7315 34.9141 25.1472 35.7615 23.4417 36.3994C21.8469 36.9958 20.2095 37.355 18.5184 37.5061C18.3941 37.5173 18.271 37.5412 18.1475 37.5896C18.3957 37.5896 18.6463 37.6122 18.8916 37.586C20.7709 37.3851 22.6182 37.0296 24.3653 36.2942C26.5061 35.3931 28.4438 34.1855 30.111 32.5502C31.3715 31.3138 32.4514 29.9565 33.2814 28.407C35.0035 25.1919 35.6311 21.7817 35.0341 18.1818C34.4019 14.3699 32.5723 11.2347 29.4348 8.91806C26.9687 7.09719 24.1793 6.20513 21.0827 6.38196C19.1229 6.49389 17.2953 7.08008 15.6676 8.1489C13.5454 9.54255 12.1099 11.4616 11.5199 13.9541C11.4585 14.2137 11.3893 14.4797 11.2668 14.7134C11.1984 14.8439 11.0135 14.9882 10.8792 14.9901C10.7463 14.992 10.5236 14.845 10.4922 14.7244C10.3827 14.3043 10.2828 13.8678 10.2811 13.437C10.2763 12.2618 10.6685 11.1768 11.2061 10.1504C12.5859 7.51597 14.7654 5.79905 17.5548 4.8023C21.5608 3.3708 25.4083 3.88629 29.1131 5.79405C31.1889 6.86299 32.9026 8.3746 34.322 10.2244C36.1211 12.5689 37.2246 15.1963 37.6653 18.1004C37.7901 18.9224 37.8634 19.7521 37.9675 20.6404C38.0626 19.5526 37.9352 18.5375 37.767 17.531C37.2847 14.6461 36.1638 12.0204 34.3692 9.69933C32.8773 7.76958 31.0475 6.22432 28.8575 5.09565C26.395 3.82651 23.7808 3.18536 21.0196 3.29792C17.8269 3.42806 14.8797 4.40086 12.4406 6.48045C8.7817 9.60004 7.14528 13.5379 8.13885 18.3243C8.72637 21.1544 10.3575 23.3046 12.9495 24.6738C13.539 24.9852 14.2073 25.1506 14.8408 25.3793C15.0671 25.461 15.3173 25.4988 15.5195 25.6182C15.6551 25.6983 15.8052 25.8882 15.8028 26.0265C15.8004 26.1667 15.6419 26.3922 15.5109 26.4263C15.0871 26.5364 14.6407 26.6514 14.2101 26.6293C12.3607 26.5341 10.7657 25.8106 9.35723 24.6285C7.24412 22.8551 6.05778 20.5751 5.54819 17.915C4.94885 14.7864 5.53226 11.8283 6.99388 9.04509C8.28515 6.58629 10.1691 4.64614 12.5524 3.16945C15.5257 1.32722 18.7656 0.503567 22.2475 0.576443C23.5613 0.603954 24.862 0.793991 26.1411 1.10618L26.1368 1.10778Z" fill="url(#paint0_linear_3870_67784)"></path><path d="M50 11.9561C50 8.89042 52.5865 7.40137 57.9583 7.40137H67.4586C72.7807 7.40137 75.4169 8.88166 75.4169 11.9561V15.6787H64.0763V11.0167C64.0444 10.8117 63.8777 10.6213 63.61 10.4839C63.3423 10.3465 62.9934 10.2724 62.6339 10.2766C62.2927 10.2799 61.9672 10.359 61.7259 10.4971C61.4847 10.6351 61.3465 10.8215 61.3406 11.0167V27.7576C61.3365 27.9572 61.4699 28.1498 61.7119 28.2937C61.9539 28.4375 62.2851 28.521 62.6339 28.5262C63.0009 28.5288 63.3555 28.4504 63.6241 28.3073C63.8927 28.1641 64.0547 27.9673 64.0763 27.7576V22.1758H62.5841V19.4714H75.4169V31.259H69.3984L68.5529 29.5795C67.3094 30.7751 65.0214 31.4014 61.6391 31.4014H57.9583C52.6018 31.4014 50 29.8926 50 26.8466V11.9561Z" fill="#ffffff"></path><path fill-rule="evenodd" clip-rule="evenodd" d="M100.088 7.5437L104.863 31.259H93.423L92.478 25.8787H88.1009L86.953 31.259H76.7105L82.1321 7.5437H100.088ZM91.9806 22.8043L90.6376 11.0736L88.4988 22.8043H91.9806Z" fill="#ffffff"></path><path d="M117.493 27.9087V7.5437H106.152V31.2678H123.121V27.9087H117.493Z" fill="#ffffff"></path><path fill-rule="evenodd" clip-rule="evenodd" d="M147.739 7.5437L152.514 31.259H141.073L140.128 25.8787H135.747L134.6 31.259H124.357L129.779 7.5437H147.739ZM139.627 22.8043L138.284 11.0736L136.13 22.8043H139.627Z" fill="#ffffff"></path><path d="M170.863 31.4014C176.185 31.4014 178.822 29.8926 178.822 26.8466V21.9481H167.481V27.7576C167.459 27.9673 167.297 28.1641 167.029 28.3073C166.76 28.4504 166.406 28.5288 166.039 28.5262C165.69 28.521 165.359 28.4375 165.117 28.2937C164.875 28.1498 164.741 27.9572 164.745 27.7576V11.0167C164.751 10.8215 164.889 10.6351 165.131 10.4971C165.372 10.359 165.697 10.2799 166.039 10.2766C166.398 10.2724 166.747 10.3465 167.015 10.4839C167.282 10.6213 167.449 10.8117 167.481 11.0167V15.6787H178.841V11.9561C178.841 8.88166 176.205 7.40137 170.882 7.40137H161.382C156.01 7.40137 153.424 8.89042 153.424 11.9561V26.8466C153.424 29.8926 156.026 31.4014 161.382 31.4014H170.863Z" fill="#ffffff"></path><path d="M199.314 7.5437V10.9663H195.335V31.2656H183.995V10.9663H180.015V7.55027L199.314 7.5437Z" fill="#ffffff"></path><path d="M201.503 31.259H212.844V7.5437H201.503V31.259Z" fill="#ffffff"></path><path d="M240.966 26.8466C240.966 29.8926 238.33 31.4014 233.007 31.4014H223.488C218.131 31.4014 215.53 29.8926 215.53 26.8466V11.9561C215.53 8.89042 218.116 7.40137 223.488 7.40137H232.988C238.31 7.40137 240.947 8.88166 240.947 11.9561V15.6787H229.606V11.0167C229.574 10.8117 229.407 10.6213 229.14 10.4839C228.872 10.3465 228.523 10.2724 228.163 10.2766C227.822 10.2799 227.497 10.359 227.256 10.4971C227.014 10.6351 226.876 10.8215 226.87 11.0167V27.7576C226.866 27.9572 226.999 28.1498 227.242 28.2937C227.484 28.4375 227.815 28.521 228.163 28.5262C228.53 28.5288 228.885 28.4504 229.154 28.3073C229.422 28.1641 229.584 27.9673 229.606 27.7576V21.9481H240.966V26.8466Z" fill="#ffffff"></path><path fill-rule="evenodd" clip-rule="evenodd" d="M269 31.259L264.225 7.5437H246.269L240.847 31.259H251.09L252.238 25.8787H256.615L257.56 31.259H269ZM254.774 11.0736L256.117 22.8043H252.636L254.774 11.0736Z" fill="#ffffff"></path><path d="M16 1.82324L16.1885 10.5238C16.2153 11.7637 17.2141 12.7625 18.454 12.7893L27.1546 12.9778L18.454 13.1663C17.2141 13.1931 16.2153 14.1919 16.1885 15.4318L16 24.1324L15.8115 15.4318C15.7847 14.1919 14.7859 13.1931 13.546 13.1663L4.84544 12.9778L13.546 12.7893C14.7859 12.7625 15.7847 11.7637 15.8115 10.5238L16 1.82324Z" fill="#ffffff"></path><defs><linearGradient id="paint0_linear_3870_67784" x1="13.9297" y1="71.2942" x2="60.3332" y2="57.0672" gradientUnits="userSpaceOnUse"><stop stop-color="#F26F56"></stop><stop offset="1" stop-color="#F49756"></stop></linearGradient></defs></svg>