<?xml version="1.0" encoding="UTF-8"?>
<svg id="Layer_1" xmlns="http://www.w3.org/2000/svg" version="1.1" viewBox="0 0 566.6666451 566.6666451">
  <!-- Generator: Adobe Illustrator 29.0.1, SVG Export Plug-In . SVG Version: 2.1.0 Build 192)  -->
  <defs>
    <style>
      .st0 {
        fill: none;
        stroke: #000;
        stroke-linecap: round;
        stroke-linejoin: round;
        stroke-width: 66.6666641px;
      }
    </style>
  </defs>
  <g id="Interface__x2F__External_x5F_Link">
    <path id="Vector" class="st0" d="M200.0066681,66.6666641h-60.0000041c-37.3369997,0-56.0193358,0-70.2799929,7.2663304-12.5443454,6.3913343-22.7356743,16.5826632-29.1270086,29.1270086-7.2663304,14.2606571-7.2663304,32.9429932-7.2663304,70.2799929v253.3333364c0,37.3366342,0,55.9966702,7.2663304,70.2566438,6.3913343,12.5433599,16.5826632,22.7533332,29.1270086,29.1433323,14.246654,7.2600044,32.9063244,7.2600044,70.1703204,7.2600044h253.5396479c37.2633284,0,55.8966615,0,70.1433473-7.2600044,12.5433599-6.3899991,22.7699907-16.6100178,29.1599898-29.1533141,7.2600044-14.2466858,7.2600044-32.8866946,7.2600044-70.150023v-60.1033188M533.333313,199.9999924V33.3333321M533.333313,33.3333321h-166.6666603M533.333313,33.3333321l-233.3333244,233.3333244"/>
  </g>
</svg>