<?xml version="1.0" encoding="UTF-8"?>
<svg id="Layer_1" xmlns="http://www.w3.org/2000/svg" version="1.1" viewBox="0 0 512 512">
  <!-- Generator: Adobe Illustrator 29.0.1, SVG Export Plug-In . SVG Version: 2.1.0 Build 192)  -->
  <defs>
    <style>
      .st0 {
        fill-rule: evenodd;
      }

      .st1 {
        fill: #f4f4f5;
      }
    </style>
  </defs>
  <path class="st0" d="M256,0c141.3850098,0,256,114.6149979,256,256s-114.6149902,256-256,256S0,397.3850098,0,256,114.6149979,0,256,0Z"/>
  <path class="st1" d="M272.8771833,354.3382685c-12.9685544-3.4442102-25.4863055-6.7280986-37.9591409-10.1744696-3.3250935-.9187512-5.661379-.6455027-7.8966487,2.4881415-10.4109939,14.5952227-25.3741138,21.3179194-42.6259913,20.2354988-14.1135398-.8855073-28.0401555-4.8218058-42.0336488-7.489468-2.8374729-.5409535-5.6576774-1.2995245-8.3888344-2.2396001-3.5780671-1.231602-8.4911343-.4205881-9.3150221-6.0886708-1.2676709-8.721194-.2273521-12.109614,6.5080302-15.471166,19.8596227-9.9116884,31.2726858-25.7035866,36.5863628-47.2767599,8.4532544-34.3196469,18.1557734-68.33258,27.4084011-102.4539676,5.5689797-20.5370233,18.4147069-34.0022753,39.1636802-39.5007068,11.6943481-3.0989701,22.9486524-.3779041,34.2265656,2.6941981,26.2822649,7.1593001,52.6316022,14.0719849,78.9316315,21.1665815,26.4707122,7.1406458,43.2025089,29.780884,39.9164774,56.1476402-1.6114366,12.9299529-5.96827,25.5375883-9.3333997,38.2245699-5.2495669,19.7916914-10.7222241,39.5241387-16.082734,59.2864826-7.5154327,27.7067952-34.3892874,43.9119136-62.2757805,37.3878659-8.8369368-2.0674117-17.5775954-4.5462193-26.8299486-6.9361699M256.9303828,256.8025884c-.529388,2.3667665-.7044102,4.8924558-1.6766493,7.0606442-1.2524658,2.7931108-3.1257096,5.3110071-4.7642443,7.926988-1.9844524,3.1681987-2.9386969,6.4148759-.2708221,9.6293008,2.8792758,3.4691653,6.3993608,2.8229719,10.0109243,1.2746403,2.4806142-1.0634872,5.1567424-1.7544723,7.4853236-3.0718321,5.011298-2.8351217,8.7297308-1.4686843,12.033013,2.8278424,2.113266,2.7486911,4.1877091,5.7483676,6.9386494,7.7123105,2.0229211,1.4442074,5.5896221,2.529692,7.5954519,1.6899504,2.0302004-.8499609,3.8327233-4.1335128,4.2122037-6.5866392.5470815-3.536645-.1516257-7.3003123-.5543254-10.9410284-.5164411-4.6691706,1.1896619-7.8275927,5.620351-9.5599969,3.4127905-1.3343979,7.1301784-2.3277488,10.0152989-4.4293785,2.1481217-1.5647676,4.3796986-4.6771937,4.3454805-7.0684549-.0292235-2.0438558-2.8621845-4.8110728-5.1105339-5.8815914-3.4131625-1.6251274-7.3848302-2.096281-11.1358694-2.9876861-4.3604465-1.036212-6.4646266-3.7372067-6.6708028-8.2211358-.185826-4.0414322-.1484554-8.2280431-1.2691852-12.0390171-.6333351-2.1535944-3.1432259-4.6027447-5.2897005-5.2069183-1.8556211-.5223035-4.5531976,1.1020711-6.5663775,2.3015273-1.2038132.7172154-1.8682491,2.4052796-2.6704784,3.7207707-7.0896021,11.6253806-5.1353296,13.1849589-22.0048663,8.7445463-.559196-.1471979-1.1959848-.4572503-1.6905526-.3170838-2.8973235.8210562-7.0796661.9383044-8.2775105,2.8726695-1.2544672,2.0258081-.4496167,6.2844682.9182376,8.758175,2.2020877,3.9823476,5.6053496,7.3005071,8.7769843,11.7913967Z"/>
</svg>