<?xml version="1.0" encoding="UTF-8"?>
<svg id="katman_1" xmlns="http://www.w3.org/2000/svg" version="1.1" viewBox="0 0 474 85.3000183">
  <!-- Generator: Adobe Illustrator 29.0.1, SVG Export Plug-In . SVG Version: 2.1.0 Build 192)  -->
  <defs>
    <style>
      .st0 {
        fill: #fff;
      }

      .st0, .st1 {
        fill-rule: evenodd;
      }

      .st1 {
        fill: #01c38d;
      }
    </style>
  </defs>
  <path class="st1" d="M51.4000015,0l-6.8000031,3.8999939v32.8000031l3.6999969,2.1000061V13.8000031l12.8000031,7.1999969h0l2.5,1.3999939,2.0999985-1.1999969v-2l-17.3000031-9.8000031v-3.3999939l3.0999985-1.8000031,17.9000015,10.1999969v9.1000061l-8.5999985,4.8999939-.3000031-.1000061c-.5-.3000031-1.0999985-.3999939-1.5999985-.3999939-2,0-3.6999969,1.6999969-3.6999969,3.8000031s1.6999969,3.8000031,3.6999969,3.8000031c1.9000015,0,3.5-1.5,3.6999969-3.3999939v-.3000031l8.6999969-4.8999939,8.0999985,4.6000061v20.1999969l-8.0999985,4.6000061-32.8000031-18.6000061V4.0000153L31.6999817.1000214,10.0999832,12.4000244v11.1999969L0,29.1000061v24.6000061l9.9000015,5.6000061v11.1999969l21.5999985,12.3000031,6.8000031-3.8999939v-32.8999939l-3.6999969-2.1000061v25.1999817l-15.2000008-8.6000061-2.0999985,1.1999969v2l17.2999992,9.8000031v3.3999939l-3.0999985,1.8000031-17.9000015-10.1999969v-9.1000061l8.5999985-4.8999939.2999992.1000061c.5.3000031,1.0999985.3999939,1.5999985.3999939,2.0999985,0,3.7000008-1.6999969,3.7000008-3.8000031s-1.7000008-3.8000031-3.7000008-3.8000031c-1.9000015,0-3.5,1.5-3.7000008,3.3999939v.3000031l-8.7000008,4.8999939-8.1000023-4.6000061v-20.1999969l8.0999985-4.6000061,32.8000031,18.6000061v33.9000244l6.8000031,3.8999939,21.5999985-12.3000031v-11.1999969l9.9000015-5.6000061v-24.7999878l-9.9000015-5.6000061v-11.1999969L51.4000015,0ZM13.7000008,14.5L31.5999985,4.3000031l3.0999985,1.8000031v3.3999939l-21,11.8999939s0-6.8999939.0000038-6.8999939ZM15.5999985,24.6000061l19.0999985-10.8000031v21.6999969l-19.0999985-10.8999939ZM48.3000031,47.5l19.0999985,10.8000031-19.0999985,10.8000031v-21.6000061ZM48.3000031,76.9000092v-3.3999939l21-11.8999939v6.8999939l-17.9000015,10.1999969-3.0999985-1.8000031h0Z"/>
  <path class="st0" d="M333.3999939,60.2000122c2.6000061,0,4.7000122-.8000031,6.3999939-2.3999939,1.6000061-1.6000061,2.5-3.6000061,2.5-6s-.7999878-4.3000031-2.5-6c-1.6000061-1.6000061-3.7999878-2.3999939-6.3999939-2.3999939h-13v16.6999969c-.1000061.0999908,13,.0999908,13,.0999908ZM320.2999878,35.1000061h12.1000061c2.1000061,0,3.8999939-.6999969,5.2999878-2.1000061,1.3999939-1.3999939,2.1000061-3,2.1000061-4.8999939s-.7000122-3.5-2.1000061-4.8999939-3.2000122-2.1000061-5.2999878-2.1000061h-12.1000061v14h0ZM452.2000122,26.6000061c1.8999939,0,3.5.1999969,5,.6999969s2.7000122,1,3.7999878,1.6000061c1.2000122.6999969,2.2999878,1.3999939,3.2000122,2.3000031l1.8999939-4.1999969h7.8999939v39.8000031c0,5.5-1.7999878,10-5.2999878,13.3999939-3.6000061,3.3999939-8.6000061,5.1000061-15.1000061,5.1000061-4,0-7.2000122-.6999969-9.6000061-2.1000061-2.3999939-1.3999939-4.3999939-3-5.7999878-4.8000031-.5-.6999969-1-1.3999939-1.5-2.1999969l8.5-4.8000031c.3999939.8000031,1,1.5,1.7999878,2.1000061.7000122.5,1.5,1,2.6000061,1.3999939,1,.3999939,2.3999939.6000061,4,.6000061,3,0,5.3999939-.8000031,7.1000061-2.5,1.7000122-1.6000061,2.6000061-3.6999969,2.6000061-6.3000031v-3.1999969c-.8999939.8999939-1.8999939,1.6000061-3,2.3000031-1,.6000061-2.2000122,1.1999969-3.5,1.6000061-1.3999939.5-2.8999939.6999969-4.6000061.6999969-2.7000122,0-5.2000122-.5-7.6000061-1.6000061-2.3999939-1-4.3999939-2.5-6.2000122-4.3000031-1.7999878-1.8000031-3.1000061-4-4.2000122-6.6000061-1-2.5-1.5-5.3000031-1.5-8.3000031s.5-5.8000031,1.5-8.3000031,2.3999939-4.6999969,4.2000122-6.6000061c1.7999878-1.8000031,3.7999878-3.3000031,6.2000122-4.3000031,2.5-.9999847,5-1.4999847,7.6000061-1.4999847ZM379,26.6000061c2.8999939,0,5.6000061.6000061,8.2000122,1.6999969,2.6000061,1.1000061,4.7999878,2.6999969,6.7999878,4.6999969,1.8999939,2,3.5,4.3000031,4.6000061,6.8999939,1.1000061,2.6000061,1.7000122,5.3999939,1.7000122,8.5s-.6000061,5.8000031-1.7000122,8.5c-1.1000061,2.6000061-2.7000122,4.8999939-4.6000061,6.8999939s-4.2000122,3.5-6.7999878,4.6999969c-2.6000061,1.1000061-5.2999878,1.6999969-8.2000122,1.6999969-2.8999939,0-5.6000061-.6000061-8.2000122-1.6999969-2.6000061-1.1000061-4.7999878-2.6999969-6.7999878-4.6999969-1.8999939-2-3.5-4.3000031-4.6000061-6.8999939-1.1000061-2.6000061-1.7000122-5.3999939-1.7000122-8.5,0-3,.6000061-5.8000031,1.7000122-8.5,1.1000061-2.6000061,2.7000122-4.8999939,4.6000061-6.8999939s4.2000122-3.5,6.7999878-4.6999969c2.6000061-1.1999969,5.3000183-1.6999969,8.2000122-1.6999969ZM125.1000061,10.8000031c2.8999939,0,5.5.5,7.8999939,1.3999939s4.3999939,2.1999969,6.1999969,3.8999939,3.1000061,3.6000061,4,5.8999939c.6000061,1.6000061,1.1000061,3.3000031,1.3000031,5h-10.8000031c-.3000031-1.5-1-2.8000031-2.1000061-3.8000031-1.5-1.5-3.6999969-2.1999969-6.5-2.1999969s-4.8999939.6999969-6.5,2c-1.5,1.3999939-2.3000031,2.8000031-2.3000031,4.3999939,0,1.6999969.6999969,3.1000061,2.1999969,4s3.3000031,1.8000031,5.6000061,2.5c2.1999969.6999969,4.6000061,1.5,7.3000031,2.3000031,2.6000061.8000031,5,1.8999939,7.3000031,3.1999969,2.1999969,1.3999939,4.1000061,3.1000061,5.6000061,5.3000031s2.1999969,5,2.1999969,8.6000061c0,2.1000061-.5,4.1000061-1.5,6.1000061s-2.5,3.6999969-4.3000031,5.3000031c-1.8999939,1.6000061-4.1000061,2.8000031-6.6999969,3.8000031-2.6000061,1-5.5,1.3999939-8.8000031,1.3999939s-6.1999969-.5-8.8000031-1.3999939-4.6999969-2.1999969-6.5-3.8999939-3.1999969-3.6999969-4.1000061-6c-1-2.3000031-1.3999939-4.8999939-1.3999939-7.6000061h11.1000061c0,2.6000061.8999939,4.6999969,2.6000061,6.3000031,1.6999969,1.6000061,4.1000061,2.5,7.1000061,2.5,3.3000031,0,5.6999969-.6999969,7.3000031-2.1000061,1.6000061-1.3999939,2.3999939-3,2.3999939-4.8999939,0-1.8000031-.6999969-3.1999969-2.1999969-4.1999969s-3.3000031-1.8999939-5.6000061-2.6000061c-2.1999969-.8000031-4.6000061-1.5-7.3000031-2.3000031-2.6000061-.6999969-5-1.8000031-7.3000031-3.1000061-2.1999969-1.3000031-4.1000061-3-5.6000061-5-1.5-2.1000061-2.1999969-4.8000031-2.1999969-8.1999969,0-2.1999969.5-4.3000031,1.3999939-6.3999939,1-2,2.3000031-3.8000031,4.1000061-5.3000031s3.8999939-2.6999969,6.3999939-3.6999969c2.5000153-.6999969,5.4000092-1.1999969,8.5000153-1.1999969h0ZM285.3999939,26.6000061c5.1000061,0,9.1000061,1.1999969,11.7999878,3.6999969,1.3999939,1.3000031,2.6000061,2.6999969,3.3999939,4.3999939l-8.7000122,4.8999939c-.2000122-.8999939-.8999939-1.8000031-2-2.8000031-1.1000061-.8999939-2.3999939-1.3999939-4-1.3999939s-2.8999939.3999939-3.7999878,1.1999969-1.2999878,1.8000031-1.2999878,3c0,1,.5,1.8000031,1.6000061,2.3000031,1.1000061.6000061,2.3999939,1.1000061,4,1.5,1.6000061.5,3.2999878,1,5.2000122,1.5,1.8999939.5,3.6000061,1.3000031,5.2000122,2.3000031s2.8999939,2.3000031,4,3.8000031c1.1000061,1.6000061,1.6000061,3.6000061,1.6000061,6.1000061,0,1.6999969-.3999939,3.3999939-1.1000061,4.8999939-.7000122,1.6000061-1.7999878,2.8999939-3.1000061,4.1000061-1.3999939,1.1999969-3,2.1000061-5,2.8000031-1.8999939.6999969-4.1000061,1.1000061-6.5,1.1000061-5.6000061,0-9.7999878-1.3000031-12.6000061-3.8000031-1.6000061-1.3999939-2.7999878-3.1000061-3.7000122-5.1000061l8.8999939-5c.2000122,1.3999939.8999939,2.6000061,2,3.6000061s2.6000061,1.5,4.3999939,1.5,3.2999878-.5,4.3999939-1.3999939c1.1000061-1,1.6000061-2,1.6000061-3.1999969,0-1-.5-1.8000031-1.6000061-2.3000031-1.1000061-.6000061-2.3999939-1.1000061-4-1.5-1.6000061-.5-3.3999939-.8999939-5.2000122-1.3999939-1.8999939-.5-3.6000061-1.1999969-5.2000122-2.1999969s-3-2.1999969-4-3.6999969c-1.1000061-1.5-1.6000061-3.5-1.6000061-6,0-1.6999969.3999939-3.3999939,1.1000061-4.8999939.7000122-1.6000061,1.7000122-2.8999939,3.1000061-4.1000061,1.3999939-1.1999969,3-2.1000061,4.7999878-2.8000031,1.9000549-.8000183,4.000061-1.1000214,6.3000488-1.1000214ZM247.8999939,26.6000061c5.1000061,0,9.1000061,1.1999969,11.7999878,3.6999969,1.3999939,1.3000031,2.6000061,2.6999969,3.3999939,4.3999939l-8.7000122,4.8999939c-.2000122-.8999939-.8999939-1.8000031-2-2.8000031-1.1000061-.8999939-2.3999939-1.3999939-4-1.3999939s-2.8999939.3999939-3.7999878,1.1999969-1.2999878,1.8000031-1.2999878,3c0,1,.5,1.8000031,1.6000061,2.3000031,1.1000061.6000061,2.3999939,1.1000061,4,1.5,1.6000061.5,3.3999939,1,5.2000122,1.5,1.8999939.5,3.6000061,1.3000031,5.2000122,2.3000031s2.8999939,2.3000031,4,3.8000031c1.1000061,1.6000061,1.6000061,3.6000061,1.6000061,6.1000061,0,1.6999969-.3999939,3.3999939-1.1000061,4.8999939-.7000122,1.6000061-1.7999878,2.8999939-3.1000061,4.1000061-1.3999939,1.1999969-3,2.1000061-5,2.8000031-1.8999939.6999969-4.1000061,1.1000061-6.5,1.1000061-5.6000061,0-9.7999878-1.3000031-12.6000061-3.8000031-1.6000061-1.3999939-2.7999878-3.1000061-3.7000122-5.1000061l8.8999939-5c.2000122,1.3999939.8999939,2.6000061,2,3.6000061s2.6000061,1.5,4.3999939,1.5c1.8999939,0,3.2999878-.5,4.3999939-1.3999939,1.1000061-1,1.6000061-2,1.6000061-3.1999969,0-1-.5-1.8000031-1.6000061-2.3000031-1.1000061-.6000061-2.3999939-1.1000061-4-1.5-1.6000061-.5-3.3999939-.8999939-5.2000122-1.3999939-1.8999939-.5-3.6000061-1.1999969-5.2000122-2.1999969s-3-2.1999969-4-3.6999969c-1.1000061-1.5-1.6000061-3.5-1.6000061-6,0-1.6999969.3999939-3.3999939,1.1000061-4.8999939.7000122-1.6000061,1.7000122-2.8999939,3.1000061-4.1000061,1.3999939-1.1999969,3-2.1000061,4.7999878-2.8000031,1.8000488-.8000183,3.9000549-1.1000214,6.3000488-1.1000214ZM333.3999939,11.4000092c2.5,0,4.8999939.3999939,7.1000061,1.3000031,2.2000122.8999939,4.1000061,2,5.6000061,3.5,1.6000061,1.5,2.7999878,3.1999969,3.7000122,5.1999969.8999939,2,1.2999878,4,1.2999878,6.3000031,0,2-.3999939,3.6999969-1.1000061,5.1000061-.7000122,1.3999939-1.6000061,2.6000061-2.3999939,3.3999939-1.1000061,1.1000061-2.2000122,1.8999939-3.3999939,2.6000061,1.7000122.8000031,3.2999878,1.8999939,4.7000122,3.1999969,1.2000122,1.1000061,2.2999878,2.6000061,3.2000122,4.5,1,1.8999939,1.3999939,4.1000061,1.3999939,6.8000031,0,2.1999969-.5,4.3999939-1.3999939,6.3999939s-2.2999878,3.8000031-4,5.3000031-3.7000122,2.6999969-6.1000061,3.6999969c-2.2999878.8999939-4.8999939,1.3999939-7.7000122,1.3999939h-25.2000122V11.5h24.2999878v-.0999908ZM158.8999939,27l8.3000031,27.3000031,8.8000031-27.3000031h6.5l8.8000031,27.3000031,8.3000031-27.3000031h10.6999969l-13.8999939,42.5h-9.3000031l-7.8999939-25.3999939-7.8999939,25.3999939h-9.3000031l-13.8999939-42.5h10.7999725ZM225.2000122,27v42.5h-10.6999969V27h10.6999969ZM425.7999878,26.6000061c.5,0,.8999939,0,1.2999878.1000061s.7000122.1000061,1,.1999969l.8999939.1999969v11c-.2999878-.1000061-.6000061-.1000061-1-.1999969-.2999878-.1000061-.7000122-.1000061-1.2000122-.1999969-.5-.1000061-1-.1000061-1.5-.1000061-2.6000061,0-4.7000122.8000031-6.2999878,2.5-1.6000061,1.6999969-2.5,3.8999939-2.5,6.6999969v22.6999969h-10.7000122V27h7.8999939l1.8999939,4.6000061c.7000122-.8999939,1.6000061-1.8000031,2.7000122-2.5.8999939-.6999969,1.8999939-1.3000031,3.2000122-1.8000031s2.7000427-.6999969,4.3000183-.6999969h0ZM379,36.7000122c-3,0-5.6000061,1-7.6000061,3.1000061s-3.1000061,4.8999939-3.1000061,8.3999939,1,6.3000031,3.1000061,8.3999939c2,2.1000061,4.6000061,3.1000061,7.6000061,3.1000061s5.6000061-1,7.6000061-3.1000061,3.1000061-4.8999939,3.1000061-8.3999939-1-6.3000031-3.1000061-8.3999939c-2-2.0000153-4.5-3.1000061-7.6000061-3.1000061ZM453.6000061,36.7000122c-1.3999939,0-2.7000122.3000031-4,.8000031-1.2000122.6000061-2.2999878,1.3000031-3.2000122,2.3000031-.8999939,1-1.7000122,2.1000061-2.2000122,3.3999939-.5,1.3000031-.7999878,2.6999969-.7999878,4.1999969s.2999878,2.8999939.7999878,4.1999969,1.2999878,2.3999939,2.2000122,3.3999939c.8999939,1,2,1.6999969,3.2000122,2.3000031s2.6000061.8000031,4,.8000031,2.7000122-.3000031,3.8999939-.8000031c1.2000122-.6000061,2.2999878-1.3000031,3.2000122-2.3000031.8999939-1,1.7000122-2.1000061,2.2000122-3.3999939.6000061-1.3000031.7999878-2.6999969.7999878-4.1999969s-.2999878-2.8999939-.7999878-4.1999969c-.6000061-1.3000031-1.2999878-2.3999939-2.2000122-3.3999939-.8999939-1-2-1.6999969-3.2000122-2.3000031-1.2000122-.5000153-2.5-.8000031-3.8999939-.8000031h0ZM219.8999939,9.5c1.6000061,0,3,.6000061,4.2000122,1.8000031s1.7999878,2.6000061,1.7999878,4.1999969-.6000061,3-1.7999878,4.1999969c-1.2000122,1.1999969-2.6000061,1.8000031-4.1999969,1.8000031-1.6000061,0-3-.6000061-4.1999969-1.8000031s-1.8000031-2.6000061-1.8000031-4.1999969.6000061-3,1.8000031-4.1999969c1.0999908-1.1999969,2.4999847-1.8000031,4.1999817-1.8000031Z"/>
</svg>