<?xml version="1.0" encoding="UTF-8"?>
<svg xmlns="http://www.w3.org/2000/svg" version="1.1" viewBox="0 0 8192 8192">
  <!-- Generator: Adobe Illustrator 29.0.1, SVG Export Plug-In . SVG Version: 2.1.0 Build 192)  -->
  <defs>
    <style>
      .st0 {
        fill: #fff;
      }

      .st0, .st1 {
        fill-rule: evenodd;
      }
    </style>
  </defs>
  <g id="Layer_1" image-rendering="optimizeQuality" shape-rendering="geometricPrecision" text-rendering="geometricPrecision">
    <path class="st1" d="M4095.999955,0C6358.1670537,0,8191.9999099,1833.8328562,8191.9999099,4095.999955s-1833.8328562,4095.999955-4095.999955,4095.999955S0,6358.1670537,0,4095.999955,1833.8328562,0,4095.999955,0ZM6067.4581344,2241.4495725l-730.7658904,3684.4019347s-102.1868025,255.4915822-383.2373733,132.8084369l-1681.240779-1323.5132424s1870.3281428-1681.2162031,1946.9559567-1752.7567952c76.6523899-71.5405921,51.0934013-86.8514093,51.0934013-86.8514093,5.0872218-86.8759853-137.9693865,0-137.9693865,0l-2478.386312,1573.9176029-1032.2390762-347.5039412s-158.4165774-56.2297749-173.7273946-178.8391924c-15.3353932-122.6831453,178.8391924-189.0873637,178.8391924-189.0873637l4103.446468-1609.6756109s337.2311938-148.192982,337.2311938,97.0995807ZM3913.6955536,5261.563563l-667.0158746,608.131897s-52.1501671,39.5427045-109.1909484,14.7701463l127.7212152-1129.6335683,648.4856079,506.731525Z"/>
    <g>
      <path class="st0" d="M1621.668975,4121.965903l1032.2392578,347.5039062,2478.3857422-1573.9174805s143.0566406-86.8759766,137.9697266,0c0,0,25.5585938,15.3105469-51.09375,86.8510742-76.6279297,71.5410156-1946.9560547,1752.7570801-1946.9560547,1752.7570801l1681.2412109,1323.5131836c281.0507812,122.6831055,383.2373047-132.8083496,383.2373047-132.8083496l730.765625-3684.4018555c0-245.2924805-337.2314453-97.0996094-337.2314453-97.0996094L1626.7803031,3754.0391452s-194.1748047,66.4042969-178.8388672,189.0874023c15.3105469,122.6098633,173.7275391,178.8393555,173.7275391,178.8393555Z"/>
      <path class="st0" d="M3137.4883109,5884.4793307c57.0410156,24.7727051,109.1914062-14.7702637,109.1914062-14.7702637l667.015625-608.1318359-648.4853516-506.7314453-127.7216797,1129.6335449Z"/>
    </g>
  </g>
</svg>