<svg width="130" height="32" fill="none" xmlns="http://www.w3.org/2000/svg" viewBox="0 0 130 32"><path d="M29.6632 2V10.0401L22.1247 15.7141H10.5405L3 10.0401V2L16.3326 11.9163L29.6632 2Z" fill="#EB3A4A"></path><path d="M29.6632 30.39V22.3499L22.1247 16.6758H10.5405L3 22.3499V30.39L16.3326 20.4756L29.6632 30.39Z" fill="#EB3A4A"></path><path d="M40.3171 23.1444H36.8379L43.9733 15.9893L37.2902 9.22766H40.8088L45.7433 14.2409L50.6779 9.22766H54.1767L47.4741 15.9893L54.6291 23.1444H51.1106L45.7433 17.7378L40.319 23.1444H40.3171Z" fill="white"></path><path d="M57.3589 23.1838V9.18846H64.6319C66.6105 9.18846 68.1603 9.54641 69.2813 10.2603C70.4024 10.9743 70.9629 11.9793 70.9629 13.2773C70.9629 14.2863 70.603 15.1182 69.8812 15.7731C70.5105 16.1271 70.9884 16.5795 71.3169 17.1302C71.6434 17.6809 71.8086 18.3102 71.8086 19.0163C71.8086 20.3655 71.2284 21.398 70.068 22.112C68.9076 22.8259 67.2398 23.1838 65.0666 23.1838H57.3608H57.3589ZM65.3399 14.8291C66.3351 14.776 67.0825 14.6167 67.582 14.3472C68.0796 14.0778 68.3294 13.7218 68.3294 13.2754C68.3294 12.764 68.0285 12.3707 67.4247 12.0953C66.8229 11.82 65.9182 11.6823 64.7126 11.6823H59.9943V14.8468L65.3399 14.8271V14.8291ZM65.1433 20.6664C66.5456 20.6664 67.5683 20.5287 68.2094 20.2534C68.8506 19.978 69.1731 19.565 69.1731 19.0143C69.1731 18.4636 68.8683 18.0506 68.2586 17.7753C67.6489 17.4999 66.6832 17.3564 65.3596 17.3426H59.9924V20.6644H65.1433V20.6664Z" fill="white"></path><path d="M78.1454 22.2888C76.7628 21.6791 75.6791 20.8413 74.8925 19.7734C74.1058 18.7054 73.7124 17.5155 73.7124 16.2057C73.7124 14.8958 74.1077 13.7099 74.9023 12.6478C75.6949 11.5858 76.7786 10.7519 78.1553 10.1422C79.532 9.53251 81.0641 9.22766 82.7555 9.22766C84.4469 9.22766 86.0026 9.53251 87.3852 10.1422C88.7679 10.7519 89.8555 11.5878 90.6481 12.6478C91.4407 13.7099 91.8379 14.8958 91.8379 16.2057C91.8379 17.5155 91.4446 18.7212 90.6579 19.7832C89.8712 20.8452 88.7875 21.6811 87.4049 22.2888C86.0223 22.8985 84.4725 23.2034 82.7555 23.2034C81.0385 23.2034 79.5281 22.8985 78.1454 22.2888ZM86.0872 20.1765C87.0764 19.7832 87.8553 19.2404 88.4256 18.5441C88.996 17.8499 89.2812 17.0691 89.2812 16.2057C89.2812 15.3423 88.996 14.5811 88.4256 13.8869C87.8553 13.1926 87.0764 12.6459 86.0872 12.2447C85.0979 11.8454 83.9867 11.6448 82.7555 11.6448C81.5243 11.6448 80.4328 11.8454 79.4435 12.2447C78.4542 12.6439 77.6774 13.1926 77.1149 13.8869C76.5504 14.5811 76.2692 15.3541 76.2692 16.2057C76.2692 17.0573 76.5504 17.8302 77.1149 18.5245C77.6774 19.2187 78.4542 19.7655 79.4435 20.1667C80.4328 20.566 81.5361 20.7666 82.7555 20.7666C83.9749 20.7666 85.0979 20.5699 86.0872 20.1765Z" fill="white"></path><path d="M109.999 23.1444L106.225 23.1247L98.9714 16.7564C99.705 16.7819 100.216 16.7957 100.505 16.7957C102.327 16.7957 103.654 16.5872 104.486 16.1663C105.318 15.7474 105.735 15.0787 105.735 14.1622C105.735 13.35 105.346 12.7265 104.565 12.2958C103.786 11.8631 102.641 11.6468 101.135 11.6468H97.3213V23.1463H94.7665V9.22766H101.115C103.408 9.22766 105.178 9.65445 106.423 10.506C107.668 11.3576 108.29 12.577 108.29 14.1622C108.29 15.2754 108.005 16.2057 107.434 16.953C106.864 17.7004 106.016 18.257 104.889 18.6248L110.001 23.1463L109.999 23.1444Z" fill="white"></path><path d="M119.984 23.2034C118.267 23.2034 116.715 22.8985 115.325 22.2888C113.936 21.6791 112.845 20.8452 112.052 19.7832C111.26 18.7212 110.862 17.5293 110.862 16.2057C110.862 14.8821 111.258 13.6902 112.052 12.6282C112.845 11.5661 113.936 10.7342 115.325 10.1324C116.714 9.53054 118.267 9.22766 119.984 9.22766C121.518 9.22766 122.887 9.45384 124.093 9.90619C125.298 10.3585 126.242 10.9977 126.923 11.8218L125.172 13.3559C124.282 12.7147 123.446 12.2683 122.667 12.0185C121.888 11.7707 120.993 11.6448 119.984 11.6448C118.765 11.6448 117.656 11.8454 116.653 12.2447C115.649 12.6439 114.861 13.1926 114.285 13.8869C113.708 14.5811 113.419 15.3541 113.419 16.2057C113.419 17.0573 113.704 17.8302 114.275 18.5245C114.845 19.2187 115.632 19.7655 116.633 20.1667C117.636 20.566 118.753 20.7666 119.984 20.7666H123.876V15.3029H126.412V23.2053H119.984V23.2034Z" fill="white"></path></svg>